<svg id="Layer_1" data-name="Layer 1" xmlns="http://www.w3.org/2000/svg" viewBox="0 0 900 900"><defs><style>.cls-1{fill:#fff;}</style></defs><path class="cls-1" d="M562.09,753.68l127.28-73.49,127.29,73.49L689.38,827.17Zm66-129.81V529.5l44.39-25.63v147L545.15,724.37V671.75ZM594.23,549v55.31l-49.08,28.34V577.35ZM466.94,677.83v-147l127.28-73.51V510L511.3,557.82V652.2ZM305.8,509.94V457.33l127.3,73.51v147l-44.38-25.64V557.81Zm49.08,122.72L305.8,604.32V549l49.08,28.34Zm0,91.71L227.59,650.88v-147L272,529.5v94.37l82.92,47.88ZM83.36,753.68l127.3-73.49,127.28,73.49L210.66,827.17ZM193.74,503.87v147L66.42,724.37v-147ZM450,445l78.33-45.23,49,28.28L450,501.53,322.71,428l49-28.28Zm44.49-64.77L450,405.91l-44.48-25.69L450,354.53ZM322.71,332.4,450,258.89,577.32,332.4l-49,28.28L450,315.45l-78.32,45.22ZM433.1,82.59v147L305.8,303.1v-147ZM594.23,303.1,467,229.6v-147l127.28,73.5ZM833.58,724.37,706.3,650.88v-147l127.28,73.48ZM689.38,455l-61.3,35.4V418.25l-65.89-38,65.89-38V136.55L450,33.74,272,136.55V342.17l65.88,38-65.88,38v72.16L210.66,455,32.58,557.81V763.43L210.66,866.25,388.72,763.43V691.28L450,726.69l61.29-35.4v72.15L689.37,866.26l178-102.82V557.82Z"/></svg>