<svg id="Layer_1" data-name="Layer 1" xmlns="http://www.w3.org/2000/svg" viewBox="0 0 1200 1200"><defs><style>.cls-1{font-size:155.21px;font-family:Lato-Bold, Lato;font-weight:700;}.cls-1,.cls-5{fill:#fff;}.cls-2{letter-spacing:-0.01em;}.cls-3{letter-spacing:-0.01em;}.cls-4{letter-spacing:-0.02em;}</style></defs><text class="cls-1" transform="translate(49.39 791.66)">NFT</text><text class="cls-1" transform="translate(387.67 791.66)">Launc<tspan class="cls-2" x="409.28" y="0">h</tspan><tspan class="cls-3" x="495.27" y="0">B</tspan><tspan class="cls-4" x="596.38" y="0">o</tspan><tspan x="682.13" y="0">x</tspan></text><path class="cls-5" d="M639.76,599.07,684.94,573l45.18,26.09-45.18,26.08ZM663.18,553v-33.5l15.75-9.1v52.19l-45.19,26.08V570Zm-12-26.57v19.63l-17.43,10.06V536.48ZM606,572.14V520l45.18-26.09v18.67l-29.43,17v33.51Zm-57.19-59.59V493.87L594,520v52.17L578.22,563v-33.5Zm17.42,43.56-17.42-10.06V526.42l17.42,10.06Zm0,32.55L521,562.58V510.39l15.75,9.1V553l29.44,17Zm-96.38,10.41L515,573l45.17,26.09L515,625.15ZM509,510.39v52.19l-45.19,26.08V536.48Zm91-20.9,27.81-16.05,17.39,10L600,509.56l-45.18-26.09,17.38-10Zm15.8-23L600,475.62l-15.79-9.11L600,457.39Zm-61-17L600,423.44l45.19,26.09-17.39,10L600,443.52l-27.8,16ZM594,360.86V413l-45.18,26.09V387Zm57.2,78.27L606,413V360.86L651.17,387Zm85,149.53-45.18-26.08V510.39l45.18,26.09Zm-51.18-95.61-21.76,12.57V480l-23.39-13.5L663.18,453V380L600,343.52,536.77,380v73l23.39,13.5L536.77,480v25.62L515,493.05,451.8,529.54v73L515,639l63.2-36.49V576.92L600,589.49l21.76-12.57v25.61L684.94,639l63.2-36.5v-73Z"/><rect class="cls-5" x="814.29" y="614.26" width="333.04" height="22.2"/><rect class="cls-5" x="62.74" y="616.68" width="333.04" height="22.2"/></svg>